<?xml version="1.0" encoding="UTF-8" standalone="no"?>
<svg
   t="1769058386547"
   class="icon"
   viewBox="0 0 108 108"
   version="1.1"
   p-id="3081"
   width="108"
   height="108"
   id="svg1"
   sodipodi:docname="icon_shadow.svg"
   inkscape:version="1.4.3 (0d15f75042, 2025-12-25)"
   xmlns:inkscape="http://www.inkscape.org/namespaces/inkscape"
   xmlns:sodipodi="http://sodipodi.sourceforge.net/DTD/sodipodi-0.dtd"
   xmlns="http://www.w3.org/2000/svg"
   xmlns:svg="http://www.w3.org/2000/svg">
  <defs
     id="defs1" />
  <sodipodi:namedview
     id="namedview1"
     pagecolor="#ffffff"
     bordercolor="#000000"
     borderopacity="0.25"
     inkscape:showpageshadow="2"
     inkscape:pageopacity="0.0"
     inkscape:pagecheckerboard="true"
     inkscape:deskcolor="#d1d1d1"
     showguides="true"
     inkscape:zoom="2.8975001"
     inkscape:cx="40.552199"
     inkscape:cy="53.666952"
     inkscape:window-width="2560"
     inkscape:window-height="1368"
     inkscape:window-x="0"
     inkscape:window-y="0"
     inkscape:window-maximized="1"
     inkscape:current-layer="layer6">
    <sodipodi:guide
       position="54,54"
       orientation="1,0"
       id="guide1"
       inkscape:locked="false" />
    <sodipodi:guide
       position="54,54"
       orientation="0,-1"
       id="guide2"
       inkscape:locked="false" />
  </sodipodi:namedview>
  <g
     inkscape:groupmode="layer"
     id="layer6"
     inkscape:label="Layer 2">
    <path
       d="M 18.313562,71.655074 C 17.634705,70.98393 17.4292,69.968867 17.793774,69.08662 c 0.364557,-0.882252 1.226656,-1.456238 2.181261,-1.45231 l 13.773613,0.01661 c 1.223729,0.09468 2.168423,1.115275 2.168417,2.342676 -3e-6,1.227404 -0.944686,2.247997 -2.168427,2.34268 l -13.773616,0.01662 c -0.624539,-0.0026 -1.222389,-0.253652 -1.66146,-0.697825 z"
       p-id="1628"
       id="path2-2"
       style="display:inline;fill:#451b1b;fill-opacity:1;stroke:none;stroke-width:0.0550706;stroke-opacity:0.997164"
       sodipodi:nodetypes="csccsccc" />
    <path
       d="M 29.822736,79.66615 C 29.37856,79.227083 29.127451,78.629251 29.124907,78.004689 l 2e-6,-3.555542 4.701974,0.01661 -6e-6,1.196255 5.881623,-6e-6 c 3.248709,5.57e-4 5.882586,-2.632884 5.882672,-5.881536 -7e-6,-3.248708 -2.633898,-5.88216 -5.882114,-5.882114 l -5.881611,1.6e-5 -3e-6,1.063345 -4.685343,-1.4e-5 -1.3e-5,-3.32293 c 0.0027,-0.624532 0.253793,-1.22231 0.697837,-1.661485 0.439623,-0.443595 1.036902,-0.69527 1.661465,-0.697818 l 8.224134,0.01664 c 5.690884,0.200881 10.200898,4.872459 10.200898,10.566878 0,5.69442 -4.509855,10.366144 -10.200743,10.567047 l -8.240887,-1.6e-5 c -0.63436,-0.01975 -1.233697,-0.295448 -1.661472,-0.764271 z M 6.395967,77.240412 C 3.3666069,74.224674 2.4562159,69.679088 4.0907059,65.729365 5.7251849,61.779671 9.581431,59.206565 13.855992,59.21343 l 8.22427,-0.0166 c 1.305945,-0.0071 2.366418,1.053349 2.359291,2.359291 l 3e-6,3.555547 -4.701953,-0.01662 -3e-6,-1.196263 -5.881616,1e-5 c -1.559526,-6.25e-4 -3.054747,0.621386 -4.153696,1.727935 -1.685151,1.679476 -2.191271,4.209344 -1.281367,6.407631 0.909875,2.198293 3.055912,3.630673 5.435069,3.627657 l 5.881587,10e-7 6e-6,-1.063347 4.70198,-0.01662 -3e-6,3.322952 c -0.0038,1.292237 -1.050447,2.338837 -2.342685,2.342685 l -8.240882,-1.4e-5 c -2.787697,0.02977 -5.472354,-1.052448 -7.460026,-3.007254 z"
       p-id="1627"
       id="path1-6-3"
       style="display:inline;fill:#451b1b;fill-opacity:1;stroke:none;stroke-width:0.0550706;stroke-opacity:0.997164"
       sodipodi:nodetypes="ccccccsccccccccsccccsccccccccscccccccc" />
    <path
       d="M 52.673019,69.86341 C 52.673195,62.338604 46.602012,57.052283 39.724952,57.052291 l -9.969784,-2.95e-4 -6.232742,9e-6 V 46.003834 c -0.03858,-8.432141 6.615619,-12.469228 15.047762,-12.507799 l 5.548353,-0.0297 c 3.094652,-0.01483 4.724804,-1.443785 6.76286,-3.773688 10.331674,-11.802814 27.239291,-4.633412 27.310523,11.051574 l 0.138497,30.111566 c 0.07321,15.971905 -17.602119,23.048 -27.410455,10.440843 -0.615012,-0.707492 -1.846548,-1.339839 -2.362494,-1.637686 0.170711,-0.147102 4.115365,-2.270733 4.115547,-9.795534 z M 84.311966,48.695557 c -1.34154,-1.04871 -1.593821,-2.983857 -0.55996,-4.342227 1.04276,-1.369238 2.997713,-1.634385 4.367942,-0.592605 l -1.887674,2.479292 c 1.887674,-2.479292 1.888656,-2.47831 1.890645,-2.477314 l 0.002,0.002 0.0054,0.0054 0.01311,0.0097 0.03062,0.02477 0.08107,0.06535 c 0.06227,0.05052 0.140537,0.116701 0.232437,0.19793 0.18308,0.162195 0.422475,0.385813 0.696499,0.673741 0.54912,0.574773 1.247569,1.410788 1.936142,2.525768 1.390025,2.248773 2.709794,5.581875 2.730574,10.071495 0.02078,4.489621 -1.268326,7.834565 -2.638561,10.095228 -0.678693,1.12091 -1.37024,1.963833 -1.913375,2.543586 -0.272069,0.289889 -0.508683,0.516287 -0.690609,0.679654 -0.0909,0.08222 -0.168157,0.148407 -0.230561,0.199801 l -0.08016,0.06626 -0.03053,0.02486 -0.01308,0.0097 -0.0061,0.0049 -0.0031,0.002 c -0.0017,0.0017 -0.0031,0.002 -1.913387,-2.460486 l 1.910413,2.462461 c -1.360337,1.054636 -3.318235,0.807303 -4.372877,-0.552051 -1.046721,-1.349459 -0.811262,-3.286586 0.519404,-4.347158 0.0101,-0.0078 0.01978,-0.01581 0.02948,-0.02296 l 0.0017,-0.0017 -0.0017,0.0017 -0.0026,0.0014 -0.0049,0.0038 -0.0081,0.007 -0.01215,0.0087 c -0.0061,0.0049 -0.0079,0.0068 -0.0061,0.0049 0.0017,-0.0017 0.0023,-0.0011 0.0029,-0.0029 0.007,-0.0058 0.02375,-0.01978 0.04736,-0.04168 0.06023,-0.05456 0.1702,-0.158282 0.313845,-0.31044 0.286964,-0.306658 0.703424,-0.806325 1.128839,-1.50974 0.839946,-1.387045 1.751121,-3.617007 1.736291,-6.838315 -0.01484,-3.221285 -0.9468,-5.442353 -1.798621,-6.821501 -0.432345,-0.699453 -0.852803,-1.195122 -1.142693,-1.498837 -0.101221,-0.106896 -0.20621,-0.210183 -0.316538,-0.307741 -0.02324,-0.02324 -0.03808,-0.03809 -0.04669,-0.04328 z m 11.053896,-6.767079 -0.01805,-0.01464 c 0.002,0.002 0.0054,0.0054 0.01152,0.0081 0.02057,0.01717 0.06235,0.05537 0.124695,0.113741 0.123659,0.116735 0.324492,0.314617 0.575712,0.596654 0.504571,0.563927 1.213921,1.459264 1.936131,2.704852 1.43455,2.474334 2.95516,6.390152 2.98088,11.966074 0.0257,5.575922 -1.45928,9.505582 -2.87106,11.992766 -0.71133,1.252506 -1.41179,2.153803 -1.911408,2.722668 -0.249353,0.283915 -0.448166,0.483807 -0.570809,0.601569 -0.06155,0.05815 -0.103673,0.09715 -0.123554,0.11487 -0.005,0.0038 -0.009,0.0079 -0.01104,0.0088 l 0.01805,-0.01464 5.67e-4,5.68e-4 -5.67e-4,-5.68e-4 -0.002,0.002 -0.004,0.004 -0.007,0.0058 -0.007,0.0058 c 0,0 0.0017,-0.0017 0.0031,-0.002 -1.307924,1.100153 -1.485985,3.052124 -0.393767,4.370916 1.097187,1.325703 3.062018,1.511703 4.387738,0.414525 l -1.98661,-2.40113 c 1.98661,2.40113 1.98857,2.400156 1.98956,2.399166 l 0.003,-0.002 0.006,-0.0049 0.014,-0.01169 0.0355,-0.02982 0.098,-0.08605 c 0.077,-0.0694 0.17805,-0.161301 0.29882,-0.276966 0.24031,-0.231626 0.56196,-0.557991 0.93493,-0.983395 0.74595,-0.848859 1.70463,-2.094433 2.65044,-3.760484 1.90053,-3.348926 3.71399,-8.339161 3.68332,-15.099314 -0.0307,-6.75917 -1.89063,-11.733559 -3.82181,-15.064684 -0.96066,-1.657144 -1.93021,-2.893813 -2.68508,-3.735748 -0.37695,-0.421443 -0.70144,-0.744964 -0.94381,-0.97451 -0.0986,-0.0935 -0.19919,-0.184894 -0.30175,-0.274058 l -0.0989,-0.08507 -0.0356,-0.02967 -0.0148,-0.01195 -0.006,-0.0049 -0.003,-0.0014 c -0.001,-0.0011 -0.003,-0.0014 -1.96681,2.416948 l 1.9649,-2.419845 c -1.3366,-1.085311 -3.299463,-0.881492 -4.383778,0.455107 -1.079366,1.329669 -0.883481,3.278674 0.434329,4.366937 l -0.002,-0.002 0.0065,0.0065 0.0065,0.0065 0.0038,0.0038 z"
       p-id="3082"
       id="path1-7"
       sodipodi:nodetypes="zccccccccccczcccccccccccccsccccccccccccccccccccsccccsccccccccccscccccccccccccccccccccccccscccccccccccccccccc"
       style="display:inline;fill:#451b1b;fill-opacity:1;stroke:none;stroke-width:0.0989341;stroke-opacity:0.997164" />
  </g>
  <g
     inkscape:groupmode="layer"
     id="layer1"
     inkscape:label="Layer 1"
     transform="matrix(0.28377117,0.28377117,-0.28377117,0.28377117,231.88237,234.79541)"
     style="display:inline;fill:#ffffff;fill-opacity:1;stroke:none;stroke-opacity:0.997164">
    <path
       d="m -669.21729,87.973118 c -2.37868,0.01359 -4.5293,-1.412839 -5.44143,-3.609715 -0.91217,-2.196858 -0.40452,-4.727213 1.2844,-6.402291 l 24.29814,-24.239605 c 2.32301,-1.989371 5.78582,-1.855628 7.94847,0.307041 2.16266,2.162671 2.29641,5.625454 0.30703,7.948496 l -24.23959,24.298165 c -1.10494,1.095914 -2.60076,1.706898 -4.15702,1.697909 z"
       p-id="1628"
       id="path2"
       style="display:inline;fill:#ffffff;fill-opacity:1;stroke:none;stroke-width:0.137226;stroke-opacity:0.997164"
       sodipodi:nodetypes="csccsccc" />
    <path
       d="m -634.82294,81.809529 c -1.55626,0.009 -3.05208,-0.601919 -4.15703,-1.697905 l -6.2648,-6.264808 8.31406,-8.255537 2.10777,2.107792 10.36331,-10.36333 c 5.72515,-5.72319 5.72592,-15.004115 0.002,-20.728337 -5.72418,-5.724157 -15.00515,-5.723382 -20.72837,0 l -10.36327,10.363328 1.87359,1.873602 -8.25552,8.255469 -5.85497,-5.854923 c -1.09561,-1.10522 -1.70651,-2.60087 -1.69793,-4.157085 -0.007,-1.556215 0.60195,-3.052058 1.69793,-4.157018 l 14.52011,-14.46146 c 10.38119,-9.673292 26.559,-9.388619 36.59247,0.644851 10.03347,10.033471 10.31868,26.211259 0.64542,36.592493 l -14.52033,14.520277 c -1.15254,1.082925 -2.69433,1.653179 -4.27412,1.580854 z m -45.55168,37.003461 c -10.65136,0.024 -20.2647,-6.38115 -24.3441,-16.22044 -4.07937,-9.839219 -1.8185,-21.167628 5.7253,-28.687235 l 14.46177,-14.520281 c 2.2885,-2.313606 6.02557,-2.313606 8.31406,0 l 6.26482,6.264809 -8.31405,8.255472 -2.1078,-2.10779 -10.36329,10.363328 c -2.74896,2.746754 -4.28754,6.477282 -4.27415,10.363333 -0.01,5.928417 3.55581,11.277774 9.03239,13.547884 5.47654,2.27017 11.78165,1.01272 15.96837,-3.18463 l 10.36326,-10.363254 -1.87359,-1.873609 8.25552,-8.3141 5.85498,5.854991 c 2.27012,2.28368 2.27012,5.97186 0,8.255541 l -14.52032,14.520271 c -4.85943,4.96432 -11.49659,7.7878 -18.44317,7.84571 z"
       p-id="1627"
       id="path1-6"
       style="display:inline;fill:#ffffff;fill-opacity:1;stroke:none;stroke-width:0.137226;stroke-opacity:0.997164"
       sodipodi:nodetypes="ccccccsccccccccsccccsccccccccscccccccc" />
    <path
       d="m -611.83339,24.275453 c -13.25827,-13.25889 -33.27,-11.875977 -45.38725,0.241302 l -17.56711,17.566071 -10.98197,10.982001 -19.46669,-19.466691 c -14.92527,-14.789311 -10.31396,-33.62717753 4.47537,-48.552432 l 9.72378,-9.82843 c 5.4266,-5.478848 5.7811,-10.868948 5.26687,-18.565218 -2.59213,-39.0006 39.83117,-56.15917 67.59336,-28.648 l 53.3001,52.812041 c 28.27122,28.0132325 9.59555,71.624822 -29.90017,66.693346 -2.33023,-0.162948 -5.61436,0.892814 -7.04825,1.2771 0.0416,-0.559981 3.25021,-11.252196 -10.00804,-24.51109 z m 18.44989,-93.044687 c -4.21158,0.51596 -8.06579,-2.44922 -8.63757,-6.66429 -0.57525,-4.2499 2.40216,-8.16168 6.65208,-8.7404 l 1.04242,7.69452 c -1.04242,-7.69452 -1.03896,-7.69452 -1.0337,-7.69627 h 0.007 0.0192 l 0.0402,-0.006 0.0976,-0.0103 0.25799,-0.0277 c 0.19873,-0.0207 0.45325,-0.042 0.7583,-0.0608 0.60837,-0.0368 1.42419,-0.0646 2.41434,-0.0401 1.98028,0.0452 4.68398,0.28759 7.86181,1.03891 6.4115,1.5131 14.60978,5.06056 22.55703,12.93458 7.94724,7.87403 11.5696,16.03914 13.13852,22.43672 0.77918,3.17087 1.0459,5.87458 1.11042,7.85309 0.0314,0.99016 0.0134,1.80598 -0.0193,2.41438 -0.0153,0.30504 -0.0348,0.55778 -0.0542,0.75829 l -0.0245,0.25799 -0.01,0.0976 -0.006,0.0401 -0.002,0.0194 -0.002,0.009 c 0,0.006 -0.002,0.009 -7.70669,-0.96398 l 7.70493,0.9727 c -0.53864,4.25514 -4.42422,7.269128 -8.67764,6.73223 -4.22203,-0.53342 -7.22034,-4.36148 -6.74444,-8.5748 0.004,-0.0316 0.007,-0.0627 0.0115,-0.0924 v -0.006 0.006 l -0.002,0.007 -0.002,0.0153 -0.002,0.0265 -0.006,0.0368 c -0.002,0.0194 -0.002,0.0259 -0.002,0.0194 0,-0.006 0.002,-0.006 0,-0.0103 0.002,-0.0226 0.007,-0.0767 0.01,-0.15688 0.01,-0.20225 0.021,-0.57878 0.006,-1.09998 -0.0347,-1.04595 -0.18131,-2.66015 -0.67114,-4.64913 -0.96398,-3.92392 -3.28766,-9.45855 -8.98968,-15.10831 -5.702,-5.6497 -11.25758,-7.92109 -15.18851,-8.85023 -1.99421,-0.47064 -3.60841,-0.60316 -4.65433,-0.62752 -0.3667,-0.01 -0.73368,-0.007 -1.09997,0.0155 -0.0819,0 -0.13421,0 -0.15853,0.006 z m 7.5533,-31.400256 -0.0576,0.006 c 0.007,0 0.0191,0 0.0346,-0.006 0.0665,-0.006 0.20743,-0.0123 0.42012,-0.0193 0.42357,-0.0122 1.1261,-0.0174 2.06569,0.0369 1.88267,0.10459 4.7101,0.432296 8.17734,1.354466 6.88738,1.83209 16.46628,6.0524 26.33628,15.83176 9.86999,9.77937 14.17745,19.3199 16.07229,26.18981 0.95354,3.46025 1.30741,6.28252 1.42942,8.16517 0.0609,0.93961 0.0628,1.64212 0.0542,2.06571 -0.006,0.21092 -0.0115,0.35384 -0.0153,0.4201 -0.002,0.0155 -0.002,0.0297 -0.004,0.0349 l 0.006,-0.0576 h 0.002 -0.002 v 0.007 0.0142 l -0.002,0.0226 -0.002,0.0226 c 0,0 0,-0.006 0.002,-0.009 -0.36609,4.24299 2.75951,7.99607 7.00767,8.39529 4.26909,0.40264 8.05882,-2.73163 8.46151,-7.00074 l -7.73113,-0.73037 c 7.73113,0.73037 7.73287,0.7252 7.73287,0.72171 l 0.002,-0.009 0.002,-0.0194 0.004,-0.0452 0.01,-0.11508 0.021,-0.32424 c 0.0134,-0.25798 0.0295,-0.59792 0.0385,-1.01452 0.0153,-0.83154 0.007,-1.97334 -0.0854,-3.38005 -0.18131,-2.81004 -0.68682,-6.69389 -1.95587,-11.29595 -2.55205,-9.24945 -8.14947,-21.23745 -20.1148,-33.09467 -11.96358,-11.855506 -24.00559,-17.343076 -33.27768,-19.809756 -4.61252,-1.2272 -8.49985,-1.69785 -11.31339,-1.85126 -1.40675,-0.0784 -2.54853,-0.0767 -3.38004,-0.0541 -0.3385,0.009 -0.67676,0.0252 -1.01457,0.0488 l -0.3242,0.0244 -0.11507,0.0105 -0.0471,0.005 -0.0192,0.002 -0.007,0.002 c -0.004,0 -0.007,0.002 0.79314,7.7241 l -0.80185,-7.72585 c -4.26737,0.44277 -7.36677,4.26042 -6.92225,8.52603 0.44103,4.24468 4.22029,7.333646 8.45975,6.92919 h -0.007 0.0228 0.0228 0.0134 z"
       p-id="3082"
       id="path1"
       sodipodi:nodetypes="zccccccccccczcccccccccccccsccccccccccccccccccccsccccsccccccccccscccccccccccccccccccccccccscccccccccccccccccc"
       style="fill:#ffffff;fill-opacity:1;stroke:none;stroke-width:0.246526;stroke-opacity:0.997164" />
  </g>
</svg>
